<svg width="55" height="55" viewBox="0 0 55 55" fill="none" xmlns="http://www.w3.org/2000/svg">
<rect width="55" height="55" rx="27.5" fill="#F6F9FF"/>
<path d="M15.5312 13.9971V16.5467L15.7692 16.8527L24.2338 27.4249V40.1388L25.9675 38.779L27.6672 37.4872C28.0752 39.4816 29.078 41.1416 30.6757 42.4674C32.2735 43.7932 34.1148 44.4561 36.1998 44.4561C38.6021 44.4561 40.6531 43.6062 42.3528 41.9065C44.0525 40.2068 44.9024 38.1558 44.9024 35.7535C44.9024 33.3512 44.0525 31.3002 42.3528 29.6005C40.6531 27.9008 38.6021 27.051 36.1998 27.051C34.1828 27.051 32.3698 27.6968 30.7607 28.9886V27.4249L39.4633 16.5467V13.9971H15.5312ZM18.0128 16.1728H36.9817L29.163 25.9631H25.8315L18.0128 16.1728ZM26.4094 28.1388H28.5851V31.5382C27.9958 32.5807 27.6446 33.6912 27.5313 34.8697L26.4094 35.7535V28.1388ZM31.5766 31.1303C31.5766 31.1303 31.8939 30.813 32.5284 30.1784C33.163 29.5439 34.3868 29.2266 36.1998 29.2266C38.0128 29.2266 39.5539 29.8612 40.823 31.1303C42.0922 32.3994 42.7267 33.9405 42.7267 35.7535C42.7267 37.5665 42.0922 39.1076 40.823 40.3767C39.5539 41.6459 38.0128 42.2804 36.1998 42.2804C34.3868 42.2804 32.8457 41.6459 31.5766 40.3767C30.3075 39.1076 29.6729 37.5665 29.6729 35.7535C29.6729 33.9405 30.3075 32.3994 31.5766 31.1303ZM35.112 30.3144V31.4702C34.8627 31.5155 34.6304 31.5892 34.4151 31.6912C34.1998 31.7932 34.0015 31.9235 33.8202 32.0821C33.6389 32.2408 33.4803 32.4164 33.3443 32.609C33.2083 32.8017 33.1063 33.017 33.0383 33.2549C32.9703 33.4929 32.9363 33.7365 32.9363 33.9858C32.9363 34.8923 33.333 35.5382 34.1262 35.9235L37.2876 37.5212C37.2876 37.7932 37.1516 37.9291 36.8797 37.9291H35.5199C35.248 37.9291 35.112 37.7932 35.112 37.5212V36.8413H32.9363V37.5212C32.9363 38.1558 33.146 38.7053 33.5652 39.1699C33.9845 39.6345 34.5001 39.9235 35.112 40.0368V41.1926H37.2876V40.0368C37.8995 39.9235 38.4151 39.6345 38.8344 39.1699C39.2536 38.7053 39.4633 38.1558 39.4633 37.5212C39.4633 36.6374 39.0667 35.9915 38.2735 35.5835L35.112 33.9858C35.112 33.7138 35.248 33.5779 35.5199 33.5779H36.8797C37.1516 33.5779 37.2876 33.7138 37.2876 33.9858V34.6657H39.4633V33.9858C39.4633 33.3512 39.2536 32.8017 38.8344 32.3371C38.4151 31.8725 37.8995 31.5835 37.2876 31.4702V30.3144H35.112Z" fill="#E31E25"/>
</svg>
