<svg width="55" height="55" viewBox="0 0 55 55" fill="none" xmlns="http://www.w3.org/2000/svg">
<rect width="55" height="55" rx="27.5" fill="#F6F9FF"/>
<path d="M19.8885 13.9978C19.0046 13.9978 18.2397 14.3208 17.5938 14.9667C16.9479 15.6126 16.625 16.3774 16.625 17.2613V36.842C16.625 37.7259 16.9479 38.4907 17.5938 39.1366C18.2397 39.7825 19.0046 40.1055 19.8885 40.1055H38.3814V13.9978H19.8885ZM19.8885 16.1735H36.2057V33.5786H19.8885C19.5485 33.5786 19.1859 33.6465 18.8006 33.7825V17.2613C18.8006 16.944 18.9026 16.6834 19.1066 16.4794C19.3106 16.2754 19.5712 16.1735 19.8885 16.1735ZM26.4154 20.5247V23.7882H23.1519V25.9638H26.4154V29.2273H28.591V25.9638H31.8545V23.7882H28.591V20.5247H26.4154ZM19.8885 35.7542H36.2057V37.9298H19.8885C19.5712 37.9298 19.3106 37.8278 19.1066 37.6239C18.9026 37.4199 18.8006 37.1593 18.8006 36.842C18.8006 36.5247 18.9026 36.2641 19.1066 36.0601C19.3106 35.8562 19.5712 35.7542 19.8885 35.7542Z" fill="#E31E25"/>
</svg>
