<svg width="55" height="55" viewBox="0 0 55 55" fill="none" xmlns="http://www.w3.org/2000/svg">
<rect width="55" height="55" rx="27.5" fill="#F6F9FF"/>
<path d="M35.3495 13.7598L33.7858 15.3235L34.1937 15.7315L31.7121 18.213L33.2419 19.7768L35.7234 17.2612L37.2872 18.8249L34.7716 21.3065L36.3353 22.8363L38.8169 20.3547L39.2249 20.7626L40.7886 19.1989L35.3495 13.7598ZM29.3665 17.5672L27.8028 19.1309L28.5166 19.8448L17.3325 31.0629L17.4005 31.5728L17.7744 35.0402L17.8084 35.4142L17.9104 35.4822L14.375 39.0176H17.4685L19.6781 36.8079L22.9756 37.1479L23.4855 37.2159L23.8594 36.8419L34.7036 26.0317L35.4175 26.7456L36.9812 25.1819L29.3665 17.5672ZM30.0804 21.4085L33.1399 24.468L22.7036 34.9383L20.12 34.6323L19.9161 34.4283L19.6101 31.8448L30.0804 21.4085Z" fill="#E31E25"/>
</svg>
