<svg width="55" height="55" viewBox="0 0 55 55" fill="none" xmlns="http://www.w3.org/2000/svg">
<rect width="55" height="55" rx="27.5" fill="#F6F9FF"/>
<path d="M21.824 15.0856C19.4897 15.0856 17.4954 15.8674 15.841 17.4312C14.1866 18.9949 13.3594 20.8873 13.3594 23.1082C13.3594 23.2215 13.3707 23.4482 13.3934 23.7881H15.569C15.5463 23.4708 15.535 23.2442 15.535 23.1082C15.535 21.4992 16.1526 20.1224 17.3877 18.9779C18.6228 17.8334 20.1016 17.2612 21.824 17.2612C23.4557 17.2612 24.8721 17.7711 26.0733 18.7909L27.501 20.0147L28.9288 18.7909C30.1299 17.7711 31.5463 17.2612 33.1781 17.2612C34.9005 17.2612 36.3792 17.8334 37.6143 18.9779C38.8495 20.1224 39.467 21.4992 39.467 23.1082C39.467 23.8788 39.3594 24.6323 39.1441 25.3689C38.9288 26.1054 38.6682 26.7626 38.3622 27.3405C38.0563 27.9184 37.6143 28.519 37.0364 29.1422C36.4585 29.7655 35.9543 30.2867 35.5237 30.706C35.0931 31.1252 34.4869 31.6125 33.705 32.1677C32.9231 32.723 32.3169 33.1422 31.8863 33.4255C31.4557 33.7088 30.8325 34.1111 30.0166 34.6323C28.8381 35.3575 27.9996 35.9014 27.501 36.264C27.0024 35.9014 26.1639 35.3575 24.9854 34.6323C22.2432 32.8873 20.2716 31.4482 19.0704 30.315H16.1129C16.7701 31.1309 17.5973 31.9524 18.5945 32.7796C19.5917 33.6068 20.4302 34.247 21.1101 34.7003C21.79 35.1536 22.6965 35.7428 23.8296 36.468C25.1441 37.2839 26.0166 37.8618 26.4472 38.2017C27.1497 38.7456 27.501 39.0176 27.501 39.0176L28.5208 38.2017C28.9968 37.8391 29.8806 37.2612 31.1724 36.468C32.0336 35.9241 32.6965 35.4992 33.1611 35.1932C33.6257 34.8873 34.2829 34.4227 35.1327 33.7994C35.9826 33.1762 36.6568 32.6266 37.1554 32.1507C37.654 31.6748 38.2262 31.0686 38.8721 30.332C39.518 29.5955 40.0166 28.8816 40.3679 28.1904C40.7191 27.4992 41.0194 26.7116 41.2687 25.8278C41.518 24.9439 41.6427 24.0374 41.6427 23.1082C41.6427 20.8873 40.8155 18.9949 39.1611 17.4312C37.5067 15.8674 35.5124 15.0856 33.1781 15.0856C31.0024 15.0856 29.1101 15.7768 27.501 17.1592C25.892 15.7768 23.9996 15.0856 21.824 15.0856ZM23.1157 19.8448L20.5662 26.2017L20.3282 25.9638H13.3594V28.1394H19.4444L21.382 30.0771L23.1837 25.5558L26.4472 33.1706L28.6908 27.5275L28.9968 28.1394H31.0704C31.4784 28.8646 32.1016 29.2272 32.9401 29.2272C33.552 29.2272 34.0676 29.0176 34.4869 28.5983C34.9061 28.1791 35.1157 27.6635 35.1157 27.0516C35.1157 26.4397 34.9061 25.9241 34.4869 25.5048C34.0676 25.0856 33.552 24.8759 32.9401 24.8759C32.1016 24.8759 31.4784 25.2385 31.0704 25.9638H30.3565L28.4869 22.2244L26.3792 27.4595L23.1157 19.8448Z" fill="#E31E25"/>
</svg>
