<svg width="32" height="34" viewBox="0 0 32 34" fill="none" xmlns="http://www.w3.org/2000/svg">
<path d="M15 4.04688V6.04688H13V8.04688H15V10.0469H17V8.04688H19V6.04688H17V4.04688H15ZM6 6.04688V29.0469H15V26.0469H17V29.0469H26V6.04688H21V8.04688H24V27.0469H19V24.0469H13V27.0469H8V8.04688H11V6.04688H6ZM11 12.0469V14.0469H13V12.0469H11ZM15 12.0469V14.0469H17V12.0469H15ZM19 12.0469V14.0469H21V12.0469H19ZM11 16.0469V18.0469H13V16.0469H11ZM15 16.0469V18.0469H17V16.0469H15ZM19 16.0469V18.0469H21V16.0469H19ZM11 20.0469V22.0469H13V20.0469H11ZM15 20.0469V22.0469H17V20.0469H15ZM19 20.0469V22.0469H21V20.0469H19Z" fill="#E31E25"/>
</svg>
