<svg width="32" height="34" viewBox="0 0 32 34" fill="none" xmlns="http://www.w3.org/2000/svg">
<path d="M7 5.04688C6.1875 5.04688 5.59375 5.42188 5.21875 6.17188C4.57292 6.35938 4.04167 6.71875 3.625 7.25C3.20833 7.78125 3 8.38021 3 9.04688V18.4219L3.25 18.7031C3.3125 18.7865 3.40625 18.8906 3.53125 19.0156C3.65625 19.1406 3.91146 19.3698 4.29688 19.7031C4.68229 20.0365 5.08854 20.3385 5.51562 20.6094C5.94271 20.8802 6.47396 21.151 7.10938 21.4219C7.74479 21.6927 8.375 21.8698 9 21.9531V24.0469C9 25.6927 9.58854 27.1042 10.7656 28.2812C11.9427 29.4583 13.3542 30.0469 15 30.0469C16.6458 30.0469 18.0573 29.4583 19.2344 28.2812C20.4115 27.1042 21 25.6927 21 24.0469V19.0469C21 18.4844 21.1927 18.0104 21.5781 17.625C21.9635 17.2396 22.4375 17.0469 23 17.0469C23.5625 17.0469 24.0365 17.2396 24.4219 17.625C24.8073 18.0104 25 18.4844 25 19.0469V19.2344C24.4167 19.4427 23.9375 19.8021 23.5625 20.3125C23.1875 20.8229 23 21.401 23 22.0469C23 22.8594 23.2969 23.5625 23.8906 24.1562C24.4844 24.75 25.1875 25.0469 26 25.0469C26.8125 25.0469 27.5156 24.75 28.1094 24.1562C28.7031 23.5625 29 22.8594 29 22.0469C29 21.401 28.8125 20.8229 28.4375 20.3125C28.0625 19.8021 27.5833 19.4427 27 19.2344V19.0469C27 17.9427 26.6094 17 25.8281 16.2188C25.0469 15.4375 24.1042 15.0469 23 15.0469C21.8958 15.0469 20.9531 15.4375 20.1719 16.2188C19.3906 17 19 17.9427 19 19.0469V24.0469C19 25.151 18.6094 26.0938 17.8281 26.875C17.0469 27.6562 16.1042 28.0469 15 28.0469C13.8958 28.0469 12.9531 27.6562 12.1719 26.875C11.3906 26.0938 11 25.151 11 24.0469V21.9531C12 21.8073 12.9792 21.4635 13.9375 20.9219C14.8958 20.3802 15.6042 19.8802 16.0625 19.4219L16.75 18.7031L17 18.4219V9.04688C17 8.38021 16.7917 7.78125 16.375 7.25C15.9583 6.71875 15.4271 6.35938 14.7812 6.17188C14.4062 5.42188 13.8125 5.04688 13 5.04688C12.4375 5.04688 11.9635 5.23958 11.5781 5.625C11.1927 6.01042 11 6.48438 11 7.04688C11 7.60938 11.1927 8.08333 11.5781 8.46875C11.9635 8.85417 12.4375 9.04688 13 9.04688C13.6667 9.04688 14.1979 8.77604 14.5938 8.23438C14.8646 8.42188 15 8.69271 15 9.04688V17.6094C13.3958 19.2344 11.7292 20.0469 10 20.0469C8.27083 20.0469 6.60417 19.2344 5 17.6094V9.04688C5 8.69271 5.13542 8.42188 5.40625 8.23438C5.80208 8.77604 6.33333 9.04688 7 9.04688C7.5625 9.04688 8.03646 8.85417 8.42188 8.46875C8.80729 8.08333 9 7.60938 9 7.04688C9 6.48438 8.80729 6.01042 8.42188 5.625C8.03646 5.23958 7.5625 5.04688 7 5.04688ZM25.2812 21.3281C25.2812 21.3281 25.3281 21.2812 25.4219 21.1875C25.5156 21.0938 25.7083 21.0469 26 21.0469C26.2917 21.0469 26.5312 21.1406 26.7188 21.3281C26.9062 21.5156 27 21.7552 27 22.0469C27 22.3385 26.9062 22.5781 26.7188 22.7656C26.5312 22.9531 26.2917 23.0469 26 23.0469C25.7083 23.0469 25.4688 22.9531 25.2812 22.7656C25.0938 22.5781 25 22.3385 25 22.0469C25 21.7552 25.0938 21.5156 25.2812 21.3281Z" fill="#E31E25"/>
</svg>
