<svg width="32" height="34" viewBox="0 0 32 34" fill="none" xmlns="http://www.w3.org/2000/svg">
<path d="M9 5.04688C8.1875 5.04688 7.48438 5.34375 6.89062 5.9375C6.29688 6.53125 6 7.23438 6 8.04688V26.0469C6 26.8594 6.29688 27.5625 6.89062 28.1562C7.48438 28.75 8.1875 29.0469 9 29.0469H26V5.04688H9ZM9 7.04688H24V23.0469H9C8.6875 23.0469 8.35417 23.1094 8 23.2344V8.04688C8 7.75521 8.09375 7.51562 8.28125 7.32812C8.46875 7.14062 8.70833 7.04688 9 7.04688ZM15 11.0469V14.0469H12V16.0469H15V19.0469H17V16.0469H20V14.0469H17V11.0469H15ZM9 25.0469H24V27.0469H9C8.70833 27.0469 8.46875 26.9531 8.28125 26.7656C8.09375 26.5781 8 26.3385 8 26.0469C8 25.7552 8.09375 25.5156 8.28125 25.3281C8.46875 25.1406 8.70833 25.0469 9 25.0469Z" fill="#E31E25"/>
</svg>
