<svg width="32" height="34" viewBox="0 0 32 34" fill="none" xmlns="http://www.w3.org/2000/svg">
<path d="M5 5.04688V7.39062L5.21875 7.67188L13 17.3906V29.0781L14.5938 27.8281L16.1562 26.6406C16.5312 28.474 17.4531 30 18.9219 31.2188C20.3906 32.4375 22.0833 33.0469 24 33.0469C26.2083 33.0469 28.0938 32.2656 29.6562 30.7031C31.2188 29.1406 32 27.2552 32 25.0469C32 22.8385 31.2188 20.9531 29.6562 19.3906C28.0938 17.8281 26.2083 17.0469 24 17.0469C22.1458 17.0469 20.4792 17.6406 19 18.8281V17.3906L27 7.39062V5.04688H5ZM7.28125 7.04688H24.7188L17.5312 16.0469H14.4688L7.28125 7.04688ZM15 18.0469H17V21.1719C16.4583 22.1302 16.1354 23.151 16.0312 24.2344L15 25.0469V18.0469ZM19.75 20.7969C19.75 20.7969 20.0417 20.5052 20.625 19.9219C21.2083 19.3385 22.3333 19.0469 24 19.0469C25.6667 19.0469 27.0833 19.6302 28.25 20.7969C29.4167 21.9635 30 23.3802 30 25.0469C30 26.7135 29.4167 28.1302 28.25 29.2969C27.0833 30.4635 25.6667 31.0469 24 31.0469C22.3333 31.0469 20.9167 30.4635 19.75 29.2969C18.5833 28.1302 18 26.7135 18 25.0469C18 23.3802 18.5833 21.9635 19.75 20.7969ZM23 20.0469V21.1094C22.7708 21.151 22.5573 21.2188 22.3594 21.3125C22.1615 21.4062 21.9792 21.526 21.8125 21.6719C21.6458 21.8177 21.5 21.9792 21.375 22.1562C21.25 22.3333 21.1562 22.5312 21.0938 22.75C21.0312 22.9688 21 23.1927 21 23.4219C21 24.2552 21.3646 24.849 22.0938 25.2031L25 26.6719C25 26.9219 24.875 27.0469 24.625 27.0469H23.375C23.125 27.0469 23 26.9219 23 26.6719V26.0469H21V26.6719C21 27.2552 21.1927 27.7604 21.5781 28.1875C21.9635 28.6146 22.4375 28.8802 23 28.9844V30.0469H25V28.9844C25.5625 28.8802 26.0365 28.6146 26.4219 28.1875C26.8073 27.7604 27 27.2552 27 26.6719C27 25.8594 26.6354 25.2656 25.9062 24.8906L23 23.4219C23 23.1719 23.125 23.0469 23.375 23.0469H24.625C24.875 23.0469 25 23.1719 25 23.4219V24.0469H27V23.4219C27 22.8385 26.8073 22.3333 26.4219 21.9062C26.0365 21.4792 25.5625 21.2135 25 21.1094V20.0469H23Z" fill="#E31E25"/>
</svg>
