<svg width="60" height="60" viewBox="0 0 60 60" fill="none" xmlns="http://www.w3.org/2000/svg">
<rect width="60" height="60" rx="30" fill="#E31E25"/>
<path d="M24.8601 18.6309C24.4773 18.321 24.0489 18.1661 23.5749 18.1661C23.1009 18.1661 22.6726 18.321 22.2898 18.6309L22.2351 18.6583L22.2077 18.6856L19.4733 21.502L19.5007 21.5294C19.0814 21.9122 18.808 22.377 18.6804 22.9239C18.5528 23.4708 18.5801 23.9903 18.7624 24.4825V24.5098C19.2546 25.9317 20.0248 27.5313 21.073 29.3087C22.1211 31.086 23.4655 32.795 25.1062 34.4356C27.8041 37.1335 31.1127 39.2481 35.0319 40.7794H35.0593C36.1713 41.1622 37.183 40.9616 38.0944 40.1778L40.8562 37.4161C41.2207 37.0515 41.403 36.6003 41.403 36.0626C41.403 35.5248 41.2207 35.0736 40.8562 34.709L37.3015 31.1544L37.2741 31.0997C36.9095 30.7351 36.4538 30.5528 35.9069 30.5528C35.3601 30.5528 34.9043 30.7351 34.5398 31.0997L32.7898 32.8497C31.4408 32.1934 30.2468 31.3731 29.2077 30.3887C28.2051 29.4408 27.3939 28.2559 26.7741 26.834L28.5241 25.084C28.8887 24.7195 29.071 24.2728 29.071 23.7442C29.071 23.2156 28.8796 22.7689 28.4968 22.4044L28.5241 22.377L28.4421 22.295L24.9148 18.6583L24.8601 18.6309ZM23.3835 19.9981C23.4564 19.9434 23.5202 19.9161 23.5749 19.9161C23.6296 19.9161 23.6934 19.9434 23.7663 19.9981L27.3483 23.6622C27.403 23.7169 27.3848 23.7807 27.2937 23.8536L25.1062 26.0411L24.696 26.4239L24.8874 26.9708C24.9603 27.1713 25.0743 27.4402 25.2292 27.7774C25.3842 28.1146 25.7305 28.698 26.2683 29.5274C26.806 30.3568 27.3848 31.0723 28.0046 31.6739L28.196 31.838C28.7976 32.3848 29.4675 32.8998 30.2058 33.3829C30.944 33.8659 31.5319 34.2077 31.9694 34.4083L32.6257 34.709L33.1726 34.9551L35.7702 32.3575C35.8431 32.2846 35.8887 32.2481 35.9069 32.2481C35.9252 32.2481 35.9707 32.2846 36.0437 32.3575L39.6257 35.9395C39.6986 36.0124 39.7351 36.0534 39.7351 36.0626C39.7351 36.0717 39.6986 36.1127 39.6257 36.1856L36.946 38.8653C36.5632 39.1934 36.1166 39.2755 35.6062 39.1114C31.9056 37.6531 28.8158 35.6843 26.3366 33.2051C24.8054 31.6739 23.5476 30.0652 22.5632 28.379C21.5788 26.6928 20.8588 25.2025 20.403 23.9083C20.239 23.4525 20.3301 23.0697 20.6765 22.7598L20.7312 22.7051L23.3835 19.9981Z" fill="white"/>
</svg>
