<svg width="60" height="60" viewBox="0 0 60 60" fill="none" xmlns="http://www.w3.org/2000/svg">
<rect width="60" height="60" rx="30" fill="#E31E25"/>
<path d="M24.75 19.916V21.584L19.5 25.002V39.166H40.5V25.002L35.25 21.584V19.916H24.75ZM26.5 21.666H33.5V28.3926L30 30.6621L26.5 28.3926V21.666ZM27.375 23.416V25.166H32.625V23.416H27.375ZM24.75 23.6621V27.2441L21.9883 25.4668L24.75 23.6621ZM35.25 23.6621L38.0117 25.4668L35.25 27.2441V23.6621ZM27.375 26.041V27.791H32.625V26.041H27.375ZM21.25 27.0801L30 32.7402L38.75 27.0801V37.416H21.25V27.0801Z" fill="white"/>
</svg>
