<svg width="39" height="33" viewBox="0 0 39 33" fill="none" xmlns="http://www.w3.org/2000/svg">
<path d="M11.6719 0C8.45312 0 5.70312 1.07812 3.42188 3.23438C1.14062 5.39062 0 8 0 11.0625C0 11.2188 0.015625 11.5312 0.046875 12H3.04688C3.01562 11.5625 3 11.25 3 11.0625C3 8.84375 3.85156 6.94531 5.55469 5.36719C7.25781 3.78906 9.29688 3 11.6719 3C13.9219 3 15.875 3.70312 17.5312 5.10938L19.5 6.79688L21.4688 5.10938C23.125 3.70312 25.0781 3 27.3281 3C29.7031 3 31.7422 3.78906 33.4453 5.36719C35.1484 6.94531 36 8.84375 36 11.0625C36 12.125 35.8516 13.1641 35.5547 14.1797C35.2578 15.1953 34.8984 16.1016 34.4766 16.8984C34.0547 17.6953 33.4453 18.5234 32.6484 19.3828C31.8516 20.2422 31.1562 20.9609 30.5625 21.5391C29.9688 22.1172 29.1328 22.7891 28.0547 23.5547C26.9766 24.3203 26.1406 24.8984 25.5469 25.2891C24.9531 25.6797 24.0938 26.2344 22.9688 26.9531C21.3438 27.9531 20.1875 28.7031 19.5 29.2031C18.8125 28.7031 17.6562 27.9531 16.0312 26.9531C12.25 24.5469 9.53125 22.5625 7.875 21H3.79688C4.70312 22.125 5.84375 23.2578 7.21875 24.3984C8.59375 25.5391 9.75 26.4219 10.6875 27.0469C11.625 27.6719 12.875 28.4844 14.4375 29.4844C16.25 30.6094 17.4531 31.4062 18.0469 31.875C19.0156 32.625 19.5 33 19.5 33L20.9062 31.875C21.5625 31.375 22.7812 30.5781 24.5625 29.4844C25.75 28.7344 26.6641 28.1484 27.3047 27.7266C27.9453 27.3047 28.8516 26.6641 30.0234 25.8047C31.1953 24.9453 32.125 24.1875 32.8125 23.5312C33.5 22.875 34.2891 22.0391 35.1797 21.0234C36.0703 20.0078 36.7578 19.0234 37.2422 18.0703C37.7266 17.1172 38.1406 16.0312 38.4844 14.8125C38.8281 13.5938 39 12.3438 39 11.0625C39 8 37.8594 5.39062 35.5781 3.23438C33.2969 1.07812 30.5469 0 27.3281 0C24.3281 0 21.7188 0.953125 19.5 2.85938C17.2812 0.953125 14.6719 0 11.6719 0ZM13.4531 6.5625L9.9375 15.3281L9.60938 15H0V18H8.39062L11.0625 20.6719L13.5469 14.4375L18.0469 24.9375L21.1406 17.1562L21.5625 18H24.4219C24.9844 19 25.8438 19.5 27 19.5C27.8438 19.5 28.5547 19.2109 29.1328 18.6328C29.7109 18.0547 30 17.3438 30 16.5C30 15.6562 29.7109 14.9453 29.1328 14.3672C28.5547 13.7891 27.8438 13.5 27 13.5C25.8438 13.5 24.9844 14 24.4219 15H23.4375L20.8594 9.84375L17.9531 17.0625L13.4531 6.5625Z" fill="#E31E25"/>
</svg>
