<svg width="60" height="64" viewBox="0 0 60 64" fill="none" xmlns="http://www.w3.org/2000/svg">
<path d="M13.711 15.7053C13.3787 15.7053 13.0878 15.8299 12.8385 16.0792C12.5892 16.3285 12.4646 16.6194 12.4646 16.9518C12.4646 17.2841 12.5892 17.575 12.8385 17.8243C13.0878 18.0736 13.3787 18.1982 13.711 18.1982C14.085 18.1982 14.3862 18.0736 14.6147 17.8243C14.8432 17.575 14.9575 17.2841 14.9575 16.9518C14.9575 16.6194 14.8432 16.3285 14.6147 16.0792C14.3862 15.8299 14.085 15.7053 13.711 15.7053ZM24.9292 39.0141H21.1898V35.2747C21.1898 34.9423 21.0755 34.6515 20.847 34.4022C20.6185 34.1529 20.3173 34.0282 19.9433 34.0282C19.611 34.0282 19.3201 34.1529 19.0708 34.4022C18.8215 34.6515 18.6969 34.9423 18.6969 35.2747V39.0141H14.9575C14.6251 39.0141 14.3343 39.1387 14.085 39.388C13.8357 39.6373 13.711 39.9282 13.711 40.2605C13.711 40.5929 13.8357 40.8838 14.085 41.1331C14.3343 41.3824 14.6251 41.507 14.9575 41.507H18.6969V45.2464C18.6969 45.5788 18.8215 45.8696 19.0708 46.1189C19.3201 46.3682 19.611 46.4928 19.9433 46.4928C20.3173 46.4928 20.6185 46.3682 20.847 46.1189C21.0755 45.8696 21.1898 45.5788 21.1898 45.2464V41.507H24.9292C25.3031 41.507 25.6043 41.3824 25.8329 41.1331C26.0614 40.8838 26.1756 40.5929 26.1756 40.2605C26.1756 39.9282 26.0614 39.6373 25.8329 39.388C25.6043 39.1387 25.3031 39.0141 24.9292 39.0141ZM58.5836 40.1359C57.2125 37.7676 55.1974 36.2199 52.5382 35.4928C49.8791 34.7657 47.3654 35.0877 44.9972 36.4588L39.8867 39.388V28.6062C39.8867 27.9414 39.7828 27.287 39.5751 26.643C39.3673 25.999 39.0557 25.4069 38.6402 24.8668L32.4079 16.5155V13.0254C33.1558 12.7346 33.7583 12.2775 34.2153 11.6543C34.6723 11.0311 34.9008 10.304 34.9008 9.47301V3.7393C34.9008 2.70058 34.5373 1.81767 33.8102 1.09057C33.0831 0.363472 32.2002 -8.01086e-05 31.1615 -8.01086e-05H8.72521C7.72804 -8.01086e-05 6.85552 0.363472 6.10765 1.09057C5.35977 1.81767 4.98584 2.70058 4.98584 3.7393V9.47301C4.98584 10.304 5.22474 11.0311 5.70255 11.6543C6.18036 12.2775 6.77243 12.7346 7.47875 13.0254V16.5155L1.24646 24.8668C0.872521 25.4069 0.571294 25.999 0.342776 26.643C0.114259 27.287 0 27.9414 0 28.6062V52.7251C0 54.4286 0.612842 55.8932 1.83853 57.1189C3.06421 58.3446 4.5288 58.9574 6.23229 58.9574H26.3003C27.6714 61.2841 29.6761 62.7903 32.3144 63.4758C34.9528 64.1614 37.4561 63.8394 39.8244 62.5098L54.9688 53.7846C57.3371 52.4135 58.8744 50.3984 59.5807 47.7393C60.2871 45.0802 59.9547 42.5457 58.5836 40.1359ZM7.47875 3.7393C7.47875 3.40691 7.6034 3.11607 7.85269 2.86678C8.10198 2.61749 8.39282 2.49284 8.72521 2.49284H31.1615C31.5354 2.49284 31.8366 2.61749 32.0652 2.86678C32.2937 3.11607 32.4079 3.40691 32.4079 3.7393V9.47301C32.4079 9.8054 32.2937 10.0962 32.0652 10.3455C31.8366 10.5948 31.5354 10.7195 31.1615 10.7195H8.72521C8.39282 10.7195 8.10198 10.5948 7.85269 10.3455C7.6034 10.0962 7.47875 9.8054 7.47875 9.47301V3.7393ZM3.24079 26.3625L9.72238 17.6996C9.80548 17.575 9.8678 17.4503 9.90935 17.3257C9.9509 17.2011 9.97167 17.0764 9.97167 16.9518V13.2124H29.915V15.7053H18.6969C18.3645 15.7053 18.0737 15.8299 17.8244 16.0792C17.5751 16.3285 17.4504 16.6194 17.4504 16.9518C17.4504 17.2841 17.5751 17.575 17.8244 17.8243C18.0737 18.0736 18.3645 18.1982 18.6969 18.1982H30.5382L36.6459 26.3625C36.8536 26.6118 37.0198 26.8923 37.1445 27.2039C37.2691 27.5155 37.3522 27.8375 37.3938 28.1699H2.55524C2.59679 27.8375 2.67989 27.5155 2.80453 27.2039C2.92918 26.8923 3.0746 26.6118 3.24079 26.3625ZM6.23229 56.4645C5.23513 56.4645 4.36261 56.101 3.61473 55.3739C2.86686 54.6468 2.49292 53.7638 2.49292 52.7251V51.4787H25.1785C24.9707 52.2681 24.8669 53.0887 24.8669 53.9404C24.8669 54.7922 24.9915 55.6335 25.2408 56.4645H6.23229ZM26.1133 48.9858H2.49292V30.6628H37.3938V40.8214L29.8527 45.1841C29.0633 45.6411 28.3569 46.1916 27.7337 46.8356C27.1105 47.4796 26.5703 48.1963 26.1133 48.9858ZM38.5779 60.3285C36.7913 61.3672 34.9008 61.6165 32.9065 61.0764C30.9122 60.5363 29.3957 59.3729 28.3569 57.5863C27.3182 55.7582 27.0689 53.8573 27.6091 51.8838C28.1492 49.9102 29.3126 48.4041 31.0991 47.3654L37.8923 43.439L45.3711 56.4022L38.5779 60.3285ZM53.7224 51.6033L47.4901 55.1557L40.0113 42.1926L46.2436 38.6401C48.0302 37.6014 49.9207 37.3521 51.915 37.8923C53.9093 38.4324 55.4259 39.5958 56.4646 41.3824C57.4618 43.1689 57.6903 45.0594 57.1501 47.0537C56.61 49.0481 55.4674 50.5646 53.7224 51.6033Z" fill="#E31E25"/>
</svg>
