<svg width="60" height="60" viewBox="0 0 60 60" fill="none" xmlns="http://www.w3.org/2000/svg">
<rect width="60" height="60" rx="30" fill="#E31E25"/>
<path d="M43.3984 29.3223H40.1445C40.0716 28.0462 39.7708 26.8431 39.2422 25.7129C38.7135 24.5827 38.0208 23.5892 37.1641 22.7324C36.3073 21.8757 35.3138 21.1829 34.1836 20.6543C33.0534 20.1257 31.8503 19.8249 30.5742 19.752V16.498H29.4258V19.752C28.1497 19.8249 26.9466 20.1257 25.8164 20.6543C24.6862 21.1829 23.6927 21.8757 22.8359 22.7324C21.9792 23.5892 21.2865 24.5827 20.7578 25.7129C20.2292 26.8431 19.9284 28.0462 19.8555 29.3223H16.6016V30.4707H19.8555C19.9284 31.7467 20.2292 32.9499 20.7578 34.0801C21.2865 35.2103 21.9792 36.2038 22.8359 37.0605C23.6927 37.9173 24.6862 38.61 25.8164 39.1387C26.9466 39.6491 28.1497 39.9408 29.4258 40.0137V43.2949H30.5742V40.0137C31.8503 39.9408 33.0534 39.6491 34.1836 39.1387C35.3138 38.61 36.3073 37.9173 37.1641 37.0605C38.0208 36.2038 38.7135 35.2103 39.2422 34.0801C39.7708 32.9499 40.0716 31.7467 40.1445 30.4707H43.3984V29.3223ZM38.9961 29.3223H36.3711C36.2982 28.5566 36.0977 27.8366 35.7695 27.1621C35.4414 26.4876 35.0221 25.8906 34.5117 25.3711C34.0013 24.8516 33.4089 24.4368 32.7344 24.127C32.0599 23.7988 31.3398 23.5983 30.5742 23.5254V20.9004C31.7044 20.9733 32.7617 21.2376 33.7461 21.6934C34.7305 22.1673 35.6009 22.778 36.3574 23.5254C37.1139 24.2728 37.7201 25.1478 38.1758 26.1504C38.6497 27.1348 38.9232 28.1921 38.9961 29.3223ZM35.2227 30.4707C35.0768 31.6921 34.5664 32.7357 33.6914 33.6016C32.8164 34.4674 31.7773 34.9642 30.5742 35.0918V33.3691H29.4258V35.1191C28.2044 34.9733 27.1562 34.4674 26.2812 33.6016C25.4062 32.7357 24.9049 31.6921 24.7773 30.4707H26.5273V29.3223H24.7773C24.9232 28.1009 25.4336 27.0573 26.3086 26.1914C27.1836 25.3255 28.2227 24.8197 29.4258 24.6738V26.4238H30.5742V24.6738C31.7773 24.8197 32.8164 25.3255 33.6914 26.1914C34.5664 27.0573 35.0768 28.1009 35.2227 29.3223H33.4727V30.4707H35.2227ZM29.4258 20.9004V23.5254C28.6602 23.5983 27.9401 23.7897 27.2656 24.0996C26.5911 24.4277 25.9987 24.8516 25.4883 25.3711C24.9779 25.8906 24.5586 26.4876 24.2305 27.1621C23.9023 27.8366 23.7018 28.5566 23.6289 29.3223H21.0039C21.0768 28.1921 21.3503 27.1348 21.8242 26.1504C22.2799 25.1478 22.8861 24.2728 23.6426 23.5254C24.3991 22.778 25.2695 22.1673 26.2539 21.6934C27.2383 21.2376 28.2956 20.9733 29.4258 20.9004ZM21.0039 30.4434H23.6289C23.7018 31.2272 23.9023 31.9564 24.2305 32.6309C24.5586 33.3053 24.9779 33.8978 25.4883 34.4082C25.9987 34.9186 26.5911 35.3379 27.2656 35.666C27.9401 35.9759 28.6602 36.1673 29.4258 36.2402V38.8652C28.2956 38.8105 27.2383 38.5462 26.2539 38.0723C25.2695 37.6165 24.3991 37.0104 23.6426 36.2539C22.8861 35.4974 22.2799 34.627 21.8242 33.6426C21.3503 32.64 21.0768 31.5736 21.0039 30.4434ZM30.5742 38.8652V36.2402C31.3398 36.1855 32.0599 35.9941 32.7344 35.666C33.4089 35.3379 34.0013 34.9186 34.5117 34.4082C35.0221 33.8978 35.4414 33.3053 35.7695 32.6309C36.0977 31.9564 36.2982 31.2272 36.3711 30.4434H38.9961C38.9232 31.5736 38.6497 32.64 38.1758 33.6426C37.7201 34.627 37.1139 35.4974 36.3574 36.2539C35.6009 37.0104 34.7305 37.6165 33.7461 38.0723C32.7617 38.528 31.7044 38.7923 30.5742 38.8652Z" fill="white"/>
</svg>
