<svg width="90" height="90" viewBox="0 0 90 90" fill="none" xmlns="http://www.w3.org/2000/svg">
<rect width="90" height="90" rx="45" fill="#E31E25"/>
<path d="M35.7046 30.9296C33.8204 30.9296 32.2137 31.5943 30.8845 32.9235C29.5552 34.2527 28.8906 35.8595 28.8906 37.7436V51.3716C28.8906 53.2557 29.5552 54.8624 30.8845 56.1917C32.2137 57.5209 33.8204 58.1855 35.7046 58.1855C37.5888 58.1855 39.1955 57.5209 40.5247 56.1917C41.854 54.8624 42.5186 53.2557 42.5186 51.3716V45.0609L50.0294 55.398C50.2101 55.6561 50.4101 55.8949 50.6295 56.1143C50.8489 56.3336 51.0812 56.5401 51.3264 56.7337C51.5716 56.9273 51.8233 57.1015 52.0814 57.2564C52.3395 57.4112 52.6105 57.5467 52.8944 57.6629C53.1783 57.779 53.4687 57.8758 53.7655 57.9533C54.0623 58.0307 54.3591 58.0888 54.656 58.1275C54.9528 58.1662 55.2432 58.1855 55.5271 58.1855C56.9983 58.1855 58.3404 57.7597 59.5535 56.9079C61.0505 55.7981 61.9474 54.314 62.2443 52.4556C62.5411 50.5973 62.1346 48.9067 61.0247 47.3838L53.0493 36.3499C51.9394 34.827 50.4553 33.9172 48.597 33.6204C46.7386 33.3236 45.048 33.7301 43.5252 34.8399C43.0864 35.1755 42.6734 35.5626 42.2863 36.0014C41.8991 34.5302 41.0925 33.3171 39.8665 32.3621C38.6405 31.4071 37.2532 30.9296 35.7046 30.9296ZM32.6461 34.6851C32.6461 34.6851 32.859 34.4721 33.2849 34.0463C33.7107 33.6204 34.5173 33.4075 35.7046 33.4075C36.8919 33.4075 37.9114 33.8333 38.7631 34.6851C39.6149 35.5368 40.0408 36.5563 40.0408 37.7436V43.3187H31.3684V37.7436C31.3684 36.5563 31.7943 35.5368 32.6461 34.6851ZM47.5129 36.0014C48.9841 36.0014 50.1585 36.608 51.036 37.8211L54.2882 42.3121L47.2806 47.4226L44.0285 42.8928C43.5639 42.2734 43.2929 41.5765 43.2155 40.8022C43.138 40.0279 43.2542 39.2923 43.5639 38.5954C43.8736 37.8985 44.3382 37.3177 44.9577 36.8532C45.3448 36.5692 45.7578 36.3563 46.1966 36.2143C46.6354 36.0724 47.0741 36.0014 47.5129 36.0014ZM55.7594 44.3253L59.0502 48.8163C59.7471 49.7971 59.9987 50.8812 59.8052 52.0685C59.6116 53.2557 59.0373 54.1978 58.0823 54.8947C57.1273 55.5916 56.0562 55.8432 54.8689 55.6497C53.6816 55.4561 52.7395 54.8818 52.0427 53.9268L48.7518 49.3971L55.7594 44.3253ZM31.3684 45.7965H40.0408V51.3716C40.0408 52.5589 39.6149 53.5784 38.7631 54.4301C37.9114 55.2819 36.8919 55.7077 35.7046 55.7077C34.5173 55.7077 33.4978 55.2819 32.6461 54.4301C31.7943 53.5784 31.3684 52.5589 31.3684 51.3716V45.7965Z" fill="white"/>
</svg>
