<svg width="30" height="35" viewBox="0 0 30 35" fill="none" xmlns="http://www.w3.org/2000/svg">
<path d="M14.9044 0C11.9669 0 9.48257 1.01562 7.45132 3.04688C5.42007 5.07812 4.40445 7.5625 4.40445 10.5C4.40445 12.2812 4.81851 13.9375 5.64663 15.4688C6.47476 17 7.59195 18.25 8.9982 19.2188C6.52945 20.25 4.49038 21.8438 2.88101 24C1.27163 26.1562 0.326322 28.6094 0.0450721 31.3594C-0.111178 32.1719 0.138822 32.9219 0.795072 33.6094C1.01382 33.8906 1.31851 34.1094 1.70913 34.2656C2.09976 34.4219 2.4982 34.5 2.90445 34.5H16.4044C17.2482 34.5 18.0138 34.3047 18.7013 33.9141C19.3888 33.5234 19.9279 32.9844 20.3185 32.2969C20.7091 31.6094 20.9044 30.8438 20.9044 30C20.9044 28.7188 20.4748 27.6484 19.6154 26.7891C18.756 25.9297 17.6857 25.5 16.4044 25.5H10.6857L9.51382 22.3125C11.2013 21.4375 12.9982 21 14.9044 21C18.2169 21 21.0451 22.1719 23.3888 24.5156C25.7326 26.8594 26.9044 29.6875 26.9044 33H29.9044C29.9044 29.9688 29.0685 27.2031 27.3966 24.7031C25.7248 22.2031 23.5294 20.375 20.8107 19.2188C22.2169 18.25 23.3341 17.0078 24.1623 15.4922C24.9904 13.9766 25.4044 12.3125 25.4044 10.5C25.4044 7.5625 24.3888 5.07812 22.3576 3.04688C20.3263 1.01562 17.8419 0 14.9044 0ZM14.9044 3C15.4669 3 16.0763 3.07812 16.7326 3.23438L11.3888 7.5H8.01382C8.38882 6.625 8.92007 5.84375 9.60757 5.15625C10.2951 4.46875 11.0919 3.9375 11.9982 3.5625C12.9044 3.1875 13.8732 3 14.9044 3ZM19.6857 4.6875C20.6232 5.5 21.3263 6.4375 21.7951 7.5H16.1701L19.6857 4.6875ZM7.40445 10.5H22.4044C22.4044 12.5938 21.6779 14.3672 20.2248 15.8203C18.7716 17.2734 16.9982 18 14.9044 18C12.8107 18 11.0373 17.2734 9.58413 15.8203C8.13101 14.3672 7.40445 12.5938 7.40445 10.5ZM6.9357 24.0469L9.7482 31.5H3.04507C3.42007 28.5312 4.71695 26.0469 6.9357 24.0469ZM11.8107 28.5H16.4044C16.8419 28.5 17.2013 28.6406 17.4826 28.9219C17.7638 29.2031 17.9044 29.5625 17.9044 30C17.9044 30.4375 17.7638 30.7969 17.4826 31.0781C17.2013 31.3594 16.8419 31.5 16.4044 31.5H12.9357L11.8107 28.5Z" fill="white"/>
</svg>
