<svg width="90" height="90" viewBox="0 0 90 90" fill="none" xmlns="http://www.w3.org/2000/svg">
<rect width="90" height="90" rx="45" fill="#E31E25"/>
<path d="M30.1328 32.1692V34.647H57.3887V54.4695H40.0441V56.9473H62.3443V54.4695H59.8665V32.1692H30.1328ZM38.5922 37.3377C38.5922 37.3377 38.3502 37.0958 37.8663 36.6118C37.3823 36.1279 36.4564 35.8859 35.0884 35.8859C33.7205 35.8859 32.5525 36.3698 31.5847 37.3377C30.6168 38.3056 30.1328 39.4735 30.1328 40.8415C30.1328 41.7449 30.3522 42.5773 30.791 43.3387C31.2298 44.1001 31.8299 44.7002 32.5913 45.139C33.3527 45.5777 34.1851 45.7971 35.0884 45.7971C36.4564 45.7971 37.6243 45.3132 38.5922 44.3453C39.5601 43.3774 40.0441 42.2095 40.0441 40.8415C40.0441 39.4735 39.5601 38.3056 38.5922 37.3377ZM42.5219 37.1248V39.6026H48.7164V37.1248H42.5219ZM51.1942 37.1248V39.6026H54.9109V37.1248H51.1942ZM33.3269 39.0799C33.3269 39.0799 33.4462 38.9606 33.685 38.7218C33.9237 38.4831 34.3915 38.3637 35.0884 38.3637C35.7853 38.3637 36.3725 38.6024 36.85 39.0799C37.3275 39.5574 37.5662 40.1446 37.5662 40.8415C37.5662 41.3061 37.4565 41.7255 37.2372 42.0998C37.0178 42.474 36.7209 42.7708 36.3467 42.9902C35.9724 43.2096 35.553 43.3193 35.0884 43.3193C34.3915 43.3193 33.8044 43.0806 33.3269 42.6031C32.8494 42.1256 32.6106 41.5384 32.6106 40.8415C32.6106 40.1446 32.8494 39.5574 33.3269 39.0799ZM42.5219 42.0804V44.5582H54.9109V42.0804H42.5219ZM30.1328 47.036V56.9473H32.6106V49.5138H36.3273V56.9473H38.8051V50.3269L41.3604 51.6819C42.1347 52.0949 42.909 52.0949 43.6833 51.6819L48.0582 49.359L46.8967 47.1909L42.5219 49.4751L38.689 47.4619C38.147 47.178 37.5662 47.036 36.9468 47.036H30.1328Z" fill="white"/>
</svg>
