<svg width="60" height="60" viewBox="0 0 60 60" fill="none" xmlns="http://www.w3.org/2000/svg">
<rect width="60" height="60" rx="30" fill="#E31E25"/>
<path d="M38.668 19.041C37.9023 19.041 37.1185 19.0775 36.3164 19.1504C33.819 19.3874 32.1055 19.9707 31.1758 20.9004C30.3555 21.7207 28.569 23.9264 25.8164 27.5176C25.6706 27.6999 25.5339 27.8776 25.4062 28.0508C25.2786 28.224 25.1602 28.3835 25.0508 28.5293L23.5469 28.4473C22.362 28.3926 21.3958 28.821 20.6484 29.7324L18.8164 31.9746L17.9141 33.123L19.3359 33.3965L22.207 33.9707L25.5703 37.334L26.1445 40.2051L26.4453 41.627L27.5664 40.7246L29.8086 38.8926C30.7201 38.1452 31.1484 37.179 31.0938 35.9941L31.0117 34.5176C31.1576 34.4082 31.276 34.3171 31.3672 34.2441C31.4583 34.1712 31.5586 34.0938 31.668 34.0117C31.7773 33.9297 31.9049 33.834 32.0508 33.7246C35.7148 30.9173 37.9206 29.14 38.668 28.3926C39.5794 27.4811 40.1536 25.7585 40.3906 23.2246C40.4453 22.696 40.4772 22.1536 40.4863 21.5977C40.4954 21.0417 40.5 20.6178 40.5 20.3262L40.4727 19.8887L40.4453 19.0957L39.6523 19.0684C39.3971 19.0501 39.069 19.041 38.668 19.041ZM37.875 20.791C38.0208 20.791 38.1895 20.7956 38.3809 20.8047C38.5723 20.8138 38.6862 20.8184 38.7227 20.8184C38.7409 21.5658 38.7135 22.3132 38.6406 23.0605C38.5677 23.9173 38.4128 24.7422 38.1758 25.5352C37.9388 26.3281 37.6836 26.8613 37.4102 27.1348C36.6445 27.9004 34.5026 29.6322 30.9844 32.3301C28.4141 34.2988 26.9102 35.4473 26.4727 35.7754L23.793 33.0957C25.3242 31.0358 26.4544 29.5319 27.1836 28.584C29.8815 25.0658 31.6224 22.9147 32.4062 22.1309C32.6979 21.8392 33.2357 21.5749 34.0195 21.3379C34.8034 21.1009 35.6237 20.946 36.4805 20.873C37.082 20.8184 37.5469 20.791 37.875 20.791ZM35.1406 24.4004C35.1406 24.4004 35.054 24.3138 34.8809 24.1406C34.7077 23.9674 34.375 23.8809 33.8828 23.8809C33.3906 23.8809 32.9759 24.054 32.6387 24.4004C32.3014 24.7467 32.1328 25.166 32.1328 25.6582C32.1328 26.1504 32.3014 26.5697 32.6387 26.916C32.9759 27.2624 33.3906 27.4355 33.8828 27.4355C34.375 27.4355 34.7943 27.2624 35.1406 26.916C35.487 26.5697 35.6602 26.1504 35.6602 25.6582C35.6602 25.166 35.487 24.7467 35.1406 24.4004ZM23.4375 30.1973L23.7656 30.2246C23.5469 30.498 23.237 30.89 22.8359 31.4004L22.2617 32.1934L21.0859 31.9473L21.9883 30.8535C22.3711 30.3796 22.8542 30.1608 23.4375 30.1973ZM21.4414 34.7363C20.8763 35.3014 20.3841 36.1855 19.9648 37.3887L19.5273 38.9746L19.2539 40.2598L20.5391 40.0137C21.013 39.9408 21.5326 39.804 22.0977 39.6035C23.2826 39.2025 24.1758 38.7012 24.7773 38.0996L23.5469 36.8691C23.2188 37.1973 22.599 37.5254 21.6875 37.8535C22.0339 36.9056 22.362 36.2767 22.6719 35.9668L21.4414 34.7363ZM29.3164 35.7754L29.3438 36.1035C29.3802 36.7051 29.1706 37.1882 28.7148 37.5527L27.5938 38.4551L27.3477 37.2793C27.3841 37.2428 27.5163 37.138 27.7441 36.9648C27.972 36.7917 28.2409 36.5866 28.5508 36.3496C28.8607 36.1126 29.1159 35.9212 29.3164 35.7754Z" fill="white"/>
</svg>
