<svg width="24" height="24" viewBox="0 0 24 24" fill="none" xmlns="http://www.w3.org/2000/svg">
<path d="M20.4844 3.51562C20.4844 3.51562 19.8984 2.92969 18.7266 1.75781C17.5547 0.585938 15.3125 0 12 0C8.6875 0 5.85938 1.17188 3.51562 3.51562C1.17188 5.85938 0 8.6875 0 12C0 15.3125 1.17188 18.1406 3.51562 20.4844C5.85938 22.8281 8.6875 24 12 24C15.3125 24 18.1406 22.8281 20.4844 20.4844C22.8281 18.1406 24 15.3125 24 12C24 8.6875 22.8281 5.85938 20.4844 3.51562ZM4.92188 4.92188C4.92188 4.92188 5.40885 4.4349 6.38281 3.46094C7.35677 2.48698 9.22917 2 12 2C14.7708 2 17.1302 2.97396 19.0781 4.92188C21.026 6.86979 22 9.22917 22 12C22 14.7708 21.026 17.1302 19.0781 19.0781C17.1302 21.026 14.7708 22 12 22C9.22917 22 6.86979 21.026 4.92188 19.0781C2.97396 17.1302 2 14.7708 2 12C2 9.22917 2.97396 6.86979 4.92188 4.92188ZM11 4V13H18V11H13V4H11Z" fill="#E31E25"/>
</svg>
