<svg width="90" height="90" viewBox="0 0 90 90" fill="none" xmlns="http://www.w3.org/2000/svg">
<rect width="90" height="90" rx="45" fill="#E31E25"/>
<path d="M42.5186 28.4525C41.8475 28.4525 41.2668 28.6977 40.7764 29.1881C40.286 29.6785 40.0408 30.2592 40.0408 30.9303V32.1692H36.3241V30.9303H33.8462V32.1692H31.3684C30.6974 32.1692 30.1166 32.4144 29.6262 32.9048C29.1358 33.3952 28.8906 33.9759 28.8906 34.647V54.4695C28.8906 55.1405 29.1358 55.7213 29.6262 56.2117C30.1166 56.7021 30.6974 56.9473 31.3684 56.9473H58.6243C59.2954 56.9473 59.8761 56.7021 60.3665 56.2117C60.8569 55.7213 61.1021 55.1405 61.1021 54.4695V34.647C61.1021 33.9759 60.8569 33.3952 60.3665 32.9048C59.8761 32.4144 59.2954 32.1692 58.6243 32.1692H56.1465V30.9303H53.6687V32.1692H49.952V30.9303C49.952 30.2592 49.7068 29.6785 49.2164 29.1881C48.726 28.6977 48.1453 28.4525 47.4742 28.4525H42.5186ZM42.5186 30.9303H47.4742V32.1692H42.5186V30.9303ZM31.3684 34.647H58.6243V54.4695H56.1465V35.8859H53.6687V54.4695H36.3241V35.8859H33.8462V54.4695H31.3684V34.647Z" fill="white"/>
</svg>
