<svg width="62" height="62" viewBox="0 0 62 62" fill="none" xmlns="http://www.w3.org/2000/svg">
<rect width="62" height="62" rx="31" fill="#E31E25"/>
<path d="M22.5625 20.0928C21.8008 20.0928 21.2441 20.4237 20.8926 21.0854C20.2871 21.2509 19.7891 21.568 19.3984 22.0367C19.0078 22.5055 18.8125 23.034 18.8125 23.6222V31.8943L19.0469 32.1424C19.1055 32.216 19.1934 32.3079 19.3105 32.4182C19.4277 32.5285 19.667 32.7307 20.0283 33.0248C20.3896 33.3189 20.7705 33.5854 21.1709 33.8244C21.5713 34.0634 22.0693 34.3023 22.665 34.5413C23.2607 34.7803 23.8516 34.9365 24.4375 35.0101V36.8575C24.4375 38.3097 24.9893 39.5551 26.0928 40.5937C27.1963 41.6323 28.5195 42.1516 30.0625 42.1516C31.6055 42.1516 32.9287 41.6323 34.0322 40.5937C35.1357 39.5551 35.6875 38.3097 35.6875 36.8575V32.4457C35.6875 31.9494 35.8682 31.5312 36.2295 31.1911C36.5908 30.8511 37.0352 30.681 37.5625 30.681C38.0898 30.681 38.5342 30.8511 38.8955 31.1911C39.2568 31.5312 39.4375 31.9494 39.4375 32.4457V32.6112C38.8906 32.795 38.4414 33.1121 38.0898 33.5625C37.7383 34.0128 37.5625 34.5229 37.5625 35.0928C37.5625 35.8097 37.8408 36.4301 38.3975 36.954C38.9541 37.4779 39.6133 37.7398 40.375 37.7398C41.1367 37.7398 41.7959 37.4779 42.3525 36.954C42.9092 36.4301 43.1875 35.8097 43.1875 35.0928C43.1875 34.5229 43.0117 34.0128 42.6602 33.5625C42.3086 33.1121 41.8594 32.795 41.3125 32.6112V32.4457C41.3125 31.4715 40.9463 30.6397 40.2139 29.9503C39.4814 29.261 38.5977 28.9163 37.5625 28.9163C36.5273 28.9163 35.6436 29.261 34.9111 29.9503C34.1787 30.6397 33.8125 31.4715 33.8125 32.4457V36.8575C33.8125 37.8318 33.4463 38.6636 32.7139 39.3529C31.9814 40.0422 31.0977 40.3869 30.0625 40.3869C29.0273 40.3869 28.1436 40.0422 27.4111 39.3529C26.6787 38.6636 26.3125 37.8318 26.3125 36.8575V35.0101C27.25 34.8814 28.168 34.5781 29.0664 34.1001C29.9648 33.6222 30.6289 33.181 31.0586 32.7766L31.7031 32.1424L31.9375 31.8943V23.6222C31.9375 23.034 31.7422 22.5055 31.3516 22.0367C30.9609 21.568 30.4629 21.2509 29.8574 21.0854C29.5059 20.4237 28.9492 20.0928 28.1875 20.0928C27.6602 20.0928 27.2158 20.2628 26.8545 20.6029C26.4932 20.943 26.3125 21.3612 26.3125 21.8575C26.3125 22.3538 26.4932 22.772 26.8545 23.1121C27.2158 23.4522 27.6602 23.6222 28.1875 23.6222C28.8125 23.6222 29.3105 23.3832 29.6816 22.9053C29.9355 23.0707 30.0625 23.3097 30.0625 23.6222V31.1773C28.5586 32.6112 26.9961 33.3281 25.375 33.3281C23.7539 33.3281 22.1914 32.6112 20.6875 31.1773V23.6222C20.6875 23.3097 20.8145 23.0707 21.0684 22.9053C21.4395 23.3832 21.9375 23.6222 22.5625 23.6222C23.0898 23.6222 23.5342 23.4522 23.8955 23.1121C24.2568 22.772 24.4375 22.3538 24.4375 21.8575C24.4375 21.3612 24.2568 20.943 23.8955 20.6029C23.5342 20.2628 23.0898 20.0928 22.5625 20.0928ZM39.7012 34.4586C39.7012 34.4586 39.7451 34.4172 39.833 34.3345C39.9209 34.2518 40.1016 34.2104 40.375 34.2104C40.6484 34.2104 40.873 34.2932 41.0488 34.4586C41.2246 34.624 41.3125 34.8354 41.3125 35.0928C41.3125 35.3501 41.2246 35.5615 41.0488 35.727C40.873 35.8924 40.6484 35.9751 40.375 35.9751C40.1016 35.9751 39.877 35.8924 39.7012 35.727C39.5254 35.5615 39.4375 35.3501 39.4375 35.0928C39.4375 34.8354 39.5254 34.624 39.7012 34.4586Z" fill="white"/>
</svg>
