<svg width="62" height="62" viewBox="0 0 62 62" fill="none" xmlns="http://www.w3.org/2000/svg">
<rect width="62" height="62" rx="31" fill="#E31E25"/>
<path d="M30.0634 18.3668V20.2403H28.1899V22.1138H30.0634V23.9872H31.9369V22.1138H33.8103V20.2403H31.9369V18.3668H30.0634ZM21.6328 20.2403V41.7852H30.0634V38.975H31.9369V41.7852H40.3675V20.2403H35.6838V22.1138H38.494V39.9117H33.8103V37.1015H28.1899V39.9117H23.5063V22.1138H26.3165V20.2403H21.6328ZM26.3165 25.8607V27.7342H28.1899V25.8607H26.3165ZM30.0634 25.8607V27.7342H31.9369V25.8607H30.0634ZM33.8103 25.8607V27.7342H35.6838V25.8607H33.8103ZM26.3165 29.6076V31.4811H28.1899V29.6076H26.3165ZM30.0634 29.6076V31.4811H31.9369V29.6076H30.0634ZM33.8103 29.6076V31.4811H35.6838V29.6076H33.8103ZM26.3165 33.3546V35.228H28.1899V33.3546H26.3165ZM30.0634 33.3546V35.228H31.9369V33.3546H30.0634ZM33.8103 33.3546V35.228H35.6838V33.3546H33.8103Z" fill="white"/>
</svg>
