<svg width="62" height="62" viewBox="0 0 62 62" fill="none" xmlns="http://www.w3.org/2000/svg">
<rect width="62" height="62" rx="31" fill="#E31E25"/>
<path d="M37.25 41.8896V39.3896C37.25 38.0636 36.7232 36.7918 35.7855 35.8541C34.8479 34.9164 33.5761 34.3896 32.25 34.3896H22.25C20.9239 34.3896 19.6521 34.9164 18.7145 35.8541C17.7768 36.7918 17.25 38.0636 17.25 39.3896V41.8896M44.75 41.8896V39.3896C44.7492 38.2818 44.3804 37.2056 43.7017 36.33C43.023 35.4545 42.0727 34.8291 41 34.5521M36 19.5521C37.0755 19.8275 38.0288 20.453 38.7095 21.33C39.3903 22.207 39.7598 23.2857 39.7598 24.3959C39.7598 25.5061 39.3903 26.5847 38.7095 27.4618C38.0288 28.3388 37.0755 28.9643 36 29.2396M32.25 24.3896C32.25 27.1511 30.0114 29.3896 27.25 29.3896C24.4886 29.3896 22.25 27.1511 22.25 24.3896C22.25 21.6282 24.4886 19.3896 27.25 19.3896C30.0114 19.3896 32.25 21.6282 32.25 24.3896Z" stroke="white" stroke-width="2.5" stroke-linecap="round" stroke-linejoin="round"/>
</svg>
