<svg width="62" height="62" viewBox="0 0 62 62" fill="none" xmlns="http://www.w3.org/2000/svg">
<rect width="62" height="62" rx="31" fill="#E31E25"/>
<path d="M32.4777 17.9568C32.4777 17.9568 32.3728 17.869 32.163 17.6934C31.9532 17.5177 31.5653 17.4299 30.9994 17.4299C30.4334 17.4299 29.9407 17.6055 29.5211 17.9568C29.1015 18.3081 28.7844 18.7569 28.5697 19.3034H20.6953V42.7217H41.3034V19.3034H33.429C33.2144 18.7569 32.8972 18.3081 32.4777 17.9568ZM30.3407 19.5815C30.3407 19.5815 30.3871 19.5351 30.4798 19.4424C30.5725 19.3497 30.7457 19.3034 30.9994 19.3034C31.2531 19.3034 31.4726 19.3961 31.658 19.5815C31.8434 19.7668 31.9361 19.9864 31.9361 20.2401V21.1768H34.7463V23.0503H27.2524V21.1768H30.0626V20.2401C30.0626 19.9864 30.1553 19.7668 30.3407 19.5815ZM22.5688 21.1768H25.379V24.9238H36.6198V21.1768H39.43V40.8482H22.5688V21.1768ZM35.9465 27.9974L30.0626 33.8813L26.989 30.8076L25.6424 32.1542L29.3894 35.9011L30.0626 36.5451L30.7359 35.9011L37.293 29.344L35.9465 27.9974Z" fill="white"/>
</svg>
