<svg width="62" height="62" viewBox="0 0 62 62" fill="none" xmlns="http://www.w3.org/2000/svg">
<rect width="62" height="62" rx="31" fill="#E31E25"/>
<path d="M26.1171 20.2405C24.107 20.2405 22.3897 20.9138 20.965 22.2603C19.5404 23.6069 18.8281 25.2364 18.8281 27.1489C18.8281 27.2465 18.8379 27.4416 18.8574 27.7344H20.7309C20.7113 27.4612 20.7016 27.266 20.7016 27.1489C20.7016 25.7633 21.2334 24.5778 22.297 23.5923C23.3605 22.6067 24.6339 22.114 26.1171 22.114C27.5222 22.114 28.7419 22.5531 29.7762 23.4313L31.0057 24.4851L32.2351 23.4313C33.2694 22.5531 34.4891 22.114 35.8942 22.114C37.3774 22.114 38.6508 22.6067 39.7143 23.5923C40.7779 24.5778 41.3097 25.7633 41.3097 27.1489C41.3097 27.8124 41.217 28.4613 41.0316 29.0956C40.8462 29.7298 40.6218 30.2958 40.3583 30.7934C40.0949 31.291 39.7143 31.8082 39.2167 32.3449C38.7191 32.8815 38.2848 33.3304 37.9141 33.6914C37.5433 34.0524 37.0212 34.472 36.348 34.9501C35.6747 35.4283 35.1526 35.7893 34.7819 36.0332C34.4111 36.2772 33.8744 36.6236 33.1718 37.0724C32.1571 37.6969 31.435 38.1653 31.0057 38.4775C30.5763 38.1653 29.8543 37.6969 28.8395 37.0724C26.4781 35.5698 24.7803 34.3305 23.746 33.3548H21.1992C21.7652 34.0573 22.4775 34.7647 23.3362 35.4771C24.1948 36.1894 24.9169 36.7407 25.5023 37.131C26.0878 37.5213 26.8684 38.0287 27.8442 38.6532C28.9761 39.3557 29.7274 39.8534 30.0982 40.1461C30.7032 40.6144 31.0057 40.8486 31.0057 40.8486L31.8838 40.1461C32.2937 39.8338 33.0548 39.3362 34.1671 38.6532C34.9087 38.1848 35.4795 37.8189 35.8796 37.5554C36.2797 37.292 36.8456 36.8919 37.5774 36.3552C38.3092 35.8186 38.8898 35.3453 39.3192 34.9355C39.7485 34.5257 40.2413 34.0037 40.7974 33.3694C41.3536 32.7352 41.783 32.1204 42.0854 31.5252C42.3879 30.93 42.6465 30.2518 42.8612 29.4907C43.0758 28.7297 43.1832 27.949 43.1832 27.1489C43.1832 25.2364 42.4709 23.6069 41.0463 22.2603C39.6216 20.9138 37.9043 20.2405 35.8942 20.2405C34.0208 20.2405 32.3912 20.8357 31.0057 22.0262C29.6201 20.8357 27.9905 20.2405 26.1171 20.2405ZM27.2294 24.3387L25.034 29.8128L24.8291 29.6078H18.8281V31.4813H24.068L25.7365 33.1499L27.288 29.2566L30.0982 35.8137L32.0302 30.9544L32.2937 31.4813H34.0793C34.4306 32.1058 34.9673 32.418 35.6893 32.418C36.2162 32.418 36.6602 32.2375 37.0212 31.8765C37.3823 31.5155 37.5628 31.0715 37.5628 30.5446C37.5628 30.0177 37.3823 29.5737 37.0212 29.2127C36.6602 28.8516 36.2162 28.6711 35.6893 28.6711C34.9673 28.6711 34.4306 28.9834 34.0793 29.6078H33.4646L31.8546 26.3878L30.0396 30.8958L27.2294 24.3387Z" fill="white"/>
</svg>
