<svg width="62" height="62" viewBox="0 0 62 62" fill="none" xmlns="http://www.w3.org/2000/svg">
<rect width="62" height="62" rx="31" fill="#E31E25"/>
<path d="M40.4259 21.118C40.4259 21.118 39.9673 20.6594 39.0501 19.7422C38.1328 18.825 36.3862 18.3664 33.8102 18.3664C31.2342 18.3664 29.029 19.2836 27.1945 21.118C25.3601 22.9525 24.4429 25.1577 24.4429 27.7337C24.4429 29.9584 25.1454 31.9295 26.5505 33.6468L19.0859 41.1114L20.4325 42.458L27.8971 34.9934C29.6144 36.3985 31.5855 37.101 33.8102 37.101C36.3862 37.101 38.5914 36.1838 40.4259 34.3494C42.2603 32.5149 43.1775 30.3097 43.1775 27.7337C43.1775 25.1577 42.2603 22.9525 40.4259 21.118ZM28.5118 22.4353C28.5118 22.4353 28.8777 22.0694 29.6095 21.3376C30.3414 20.6058 31.7416 20.2398 33.8102 20.2398C35.8788 20.2398 37.645 20.9717 39.1086 22.4353C40.5722 23.899 41.3041 25.6651 41.3041 27.7337C41.3041 29.8023 40.5722 31.5685 39.1086 33.0321C37.645 34.4957 35.8788 35.2276 33.8102 35.2276C31.7416 35.2276 29.9755 34.4957 28.5118 33.0321C27.0482 31.5685 26.3163 29.8023 26.3163 27.7337C26.3163 25.6651 27.0482 23.899 28.5118 22.4353ZM32.8735 23.05V24.0453C32.3466 24.1429 31.9026 24.3917 31.5416 24.7918C31.1805 25.1918 31 25.6651 31 26.2115C31 26.9921 31.3415 27.5483 32.0246 27.8801L34.7469 29.2559C34.7469 29.4901 34.6298 29.6072 34.3957 29.6072H33.2247C32.9906 29.6072 32.8735 29.4901 32.8735 29.2559V28.6704H31V29.2559C31 29.8023 31.1805 30.2756 31.5416 30.6756C31.9026 31.0757 32.3466 31.3245 32.8735 31.4221V32.4174H34.7469V31.4221C34.9226 31.4026 35.0933 31.3587 35.2592 31.2904C35.4251 31.2221 35.5763 31.1342 35.7129 31.0269C35.8496 30.9196 35.9715 30.8025 36.0789 30.6756C36.1862 30.5488 36.2838 30.4122 36.3716 30.2658C36.4594 30.1195 36.5228 29.9584 36.5619 29.7828C36.6009 29.6072 36.6204 29.4315 36.6204 29.2559C36.6204 28.4948 36.2789 27.9386 35.5959 27.5873L32.8735 26.2115C32.8735 25.9773 32.9906 25.8602 33.2247 25.8602H34.3957C34.6298 25.8602 34.7469 25.9773 34.7469 26.2115V26.797H36.6204V26.2115C36.6204 25.6651 36.4399 25.1918 36.0789 24.7918C35.7178 24.3917 35.2739 24.1429 34.7469 24.0453V23.05H32.8735Z" fill="white"/>
</svg>
