<svg width="24" height="24" viewBox="0 0 24 24" fill="none" xmlns="http://www.w3.org/2000/svg">
<path d="M11.9955 1.33301C12.3788 1.33301 12.7288 1.54967 12.8955 1.89551L15.7538 7.78301L22.1372 8.72467C22.5122 8.77884 22.8247 9.04134 22.9413 9.40384C23.058 9.76634 22.9622 10.158 22.6955 10.4247L18.0663 15.0163L19.158 21.4997C19.2205 21.8747 19.0663 22.2538 18.7538 22.4788C18.4413 22.7038 18.033 22.7288 17.6997 22.5497L11.9913 19.4997L6.29133 22.5455C5.95383 22.7247 5.54549 22.6997 5.23716 22.4747C4.92883 22.2497 4.77049 21.8705 4.83299 21.4955L5.92466 15.0122L1.29549 10.4247C1.02466 10.158 0.932993 9.76217 1.04966 9.40384C1.16633 9.04551 1.47883 8.78301 1.85383 8.72467L8.23716 7.78301L11.0955 1.89551C11.2663 1.54967 11.6122 1.33301 11.9955 1.33301ZM11.9955 4.62467L9.80799 9.13301C9.66216 9.42884 9.38299 9.63717 9.05383 9.68717L4.12466 10.4122L7.70383 13.958C7.93299 14.1872 8.04133 14.5122 7.98716 14.833L7.14133 19.8205L11.5247 17.4788C11.8205 17.3205 12.1747 17.3205 12.4663 17.4788L16.8497 19.8205L16.008 14.8372C15.9538 14.5163 16.058 14.1913 16.2913 13.9622L19.8705 10.4163L14.9413 9.68717C14.6163 9.63717 14.333 9.43301 14.1872 9.13301L11.9955 4.62467Z" fill="#FEC42D"/>
</svg>
