<svg width="24" height="24" viewBox="0 0 24 24" fill="none" xmlns="http://www.w3.org/2000/svg">
<path d="M13.206 2.08301C12.9852 1.62467 12.5185 1.33301 12.006 1.33301C11.4935 1.33301 11.031 1.62467 10.806 2.08301L8.12683 7.59551L2.1435 8.47884C1.6435 8.55384 1.22683 8.90384 1.07266 9.38301C0.918498 9.86217 1.0435 10.3913 1.40183 10.7455L5.7435 15.0413L4.7185 21.1122C4.63516 21.6122 4.8435 22.1205 5.256 22.4163C5.6685 22.7122 6.21433 22.7497 6.66433 22.5122L12.0102 19.658L17.356 22.5122C17.806 22.7497 18.3518 22.7163 18.7643 22.4163C19.1768 22.1163 19.3852 21.6122 19.3018 21.1122L18.2727 15.0413L22.6143 10.7455C22.9727 10.3913 23.1018 9.86217 22.9435 9.38301C22.7852 8.90384 22.3727 8.55384 21.8727 8.47884L15.8852 7.59551L13.206 2.08301Z" fill="#FEC42D"/>
</svg>
