<svg width="45" height="47" viewBox="0 0 45 47" fill="none" xmlns="http://www.w3.org/2000/svg">
<path d="M25.3105 6.38379V25.7197H36.0771L37.0439 27.5215L37.1758 31.7842C36.6191 34.0107 35.374 35.4463 33.4404 36.0908L30.54 37.0576L32.21 40.9248L34.1436 40.4414C35.4326 40.1484 36.8535 39.4819 38.4062 38.4419C39.959 37.4019 41.3799 35.9004 42.6689 33.9375C43.9873 31.9746 44.6465 29.3232 44.6465 25.9834V6.38379H25.3105ZM0.4375 25.7197H11.2041L12.1709 27.5215L12.3027 31.7842C11.7461 34.0107 10.501 35.4463 8.56738 36.0908L5.66699 37.0576L7.33691 40.9248L9.27051 40.4414C10.5889 40.1484 12.0244 39.4819 13.5771 38.4419C15.1299 37.4019 16.5508 35.9004 17.8398 33.9375C19.1289 31.9746 19.7734 29.3232 19.7734 25.9834V6.38379H0.4375V25.7197Z" fill="#E31E25"/>
</svg>
